<svg xmlns="http://www.w3.org/2000/svg" viewBox="-5892.5 1703.157 522.936 185.901">
  <defs>
    <style>
      .cls-1 {
        fill: #e9f0f2;
      }

      .cls-2 {
        fill: #c1e6ea;
      }

      .cls-3 {
        fill: #d8e5ea;
      }

      .cls-4 {
        fill: none;
        stroke: #3d5b6c;
        stroke-linecap: round;
        stroke-miterlimit: 10;
        stroke-width: 3px;
      }

      .cls-5 {
        fill: #01a7ce;
      }

      .cls-6 {
        fill: #f4f7f8;
      }
    </style>
  </defs>
  <g id="Symbol_65_1" data-name="Symbol 65 – 1" transform="translate(-5668 1136)">
    <path id="Path_2038" data-name="Path 2038" class="cls-1" d="M89.124,157.025c-2.907-7.912-.048-15.68,5.147-18.063,4.146-1.906,9.008-.1,11.677,1.954,5.481,4.1,7.1,12.82,5.147,16.49-.238.429-1,1.668-.524,2.478.477.858,2.192,1.1,3.193.715,3.574-1.382,4.766-13.869-.191-23.4-2.621-5-5-5.481-6.386-10.628-.429-1.62-2.288-8.436,1.239-12.582,3.956-4.623,12.868-3.908,18.4-.715,7.769,4.432,12.106,15.489,10.438,24.259-.62,3.384-3.717,14.727-4.766,20.541a4.284,4.284,0,0,0,.524,3.527c1.287,1.62,4.1,1.239,4.242,1.239,3.479-.524,4.575-4.289,7.626-8.15a25.992,25.992,0,0,1,18.587-9.723c2.478-.1,7.006-.286,9.818,2.669,4.146,4.337,2.669,13.3-1.334,18.778-3.67,5.052-7.244,4.1-14.155,10.1-7.006,6.1-5.052,8.531-9.58,11.677-10.962,7.721-22.829-6.482-44.991-1.573-5.672,1.239-10.58,3.432-12.773,1.049-2.383-2.621,1.382-7.816,1.43-16.824A34.872,34.872,0,0,0,89.124,157.025Z" transform="translate(-270.527 509.212)"/>
    <path id="Path_2041" data-name="Path 2041" class="cls-1" d="M405.546,177.025c2.907-7.912.048-15.68-5.147-18.063-4.146-1.906-9.008-.1-11.677,1.954-5.481,4.1-7.1,12.82-5.147,16.49.238.429,1,1.668.524,2.478-.477.858-2.192,1.1-3.193.715-3.574-1.382-4.766-13.869.191-23.4,2.621-5,5-5.481,6.386-10.628.429-1.62,2.288-8.436-1.239-12.582-3.956-4.623-12.868-3.908-18.4-.715-7.769,4.432-12.106,15.489-10.437,24.259.62,3.384,3.717,14.727,4.766,20.541a4.284,4.284,0,0,1-.524,3.527c-1.287,1.62-4.1,1.239-4.242,1.239-3.479-.524-4.575-4.289-7.626-8.15a25.992,25.992,0,0,0-18.587-9.723c-2.478-.1-7.006-.286-9.818,2.669-4.146,4.337-2.669,13.3,1.334,18.778,3.67,5.052,7.244,4.1,14.155,10.1,7.006,6.1,5.052,8.531,9.58,11.677,10.962,7.721,22.829-6.482,44.991-1.573,5.671,1.239,10.58,3.431,12.773,1.049,2.383-2.621-1.382-7.816-1.43-16.824A33.1,33.1,0,0,1,405.546,177.025Z" transform="translate(-391.4 498.743)"/>
    <path id="Path_2042" data-name="Path 2042" class="cls-1" d="M861.246,184.725c2.907-7.912.048-15.68-5.147-18.063-4.146-1.906-9.008-.1-11.677,1.954-5.481,4.1-7.1,12.82-5.147,16.49.238.429,1,1.668.524,2.478-.477.858-2.192,1.1-3.193.715-3.575-1.382-4.766-13.869.191-23.4,2.621-5,5-5.481,6.386-10.628.429-1.62,2.288-8.436-1.239-12.582-3.956-4.623-12.868-3.908-18.4-.715-7.769,4.432-12.106,15.489-10.438,24.259.62,3.384,3.718,14.727,4.766,20.541a4.284,4.284,0,0,1-.524,3.527c-1.287,1.62-4.1,1.239-4.242,1.239-3.479-.524-4.575-4.289-7.625-8.15a25.992,25.992,0,0,0-18.587-9.723c-2.478-.1-7.006-.286-9.818,2.669-4.146,4.337-2.669,13.3,1.334,18.778,3.67,5.052,7.244,4.1,14.155,10.1,7.006,6.1,5.052,8.531,9.58,11.677,10.962,7.721,22.829-6.482,44.991-1.573,5.672,1.239,10.58,3.432,12.773,1.049,2.383-2.621-1.382-7.816-1.43-16.824A34.049,34.049,0,0,1,861.246,184.725Z" transform="translate(-629.915 494.713)"/>
    <circle id="Ellipse_375" data-name="Ellipse 375" class="cls-2" cx="1.859" cy="1.859" r="1.859" transform="translate(-119.493 626.012)"/>
    <circle id="Ellipse_376" data-name="Ellipse 376" class="cls-2" cx="1.859" cy="1.859" r="1.859" transform="translate(-151.711 607.425)"/>
    <circle id="Ellipse_377" data-name="Ellipse 377" class="cls-2" cx="1.859" cy="1.859" r="1.859" transform="translate(-207.044 625.202)"/>
    <circle id="Ellipse_378" data-name="Ellipse 378" class="cls-2" cx="1.859" cy="1.859" r="1.859" transform="translate(-33.276 625.202)"/>
    <circle id="Ellipse_379" data-name="Ellipse 379" class="cls-2" cx="1.859" cy="1.859" r="1.859" transform="translate(130.007 646.41)"/>
    <circle id="Ellipse_380" data-name="Ellipse 380" class="cls-2" cx="1.859" cy="1.859" r="1.859" transform="translate(139.396 611.905)"/>
    <circle id="Ellipse_381" data-name="Ellipse 381" class="cls-2" cx="1.859" cy="1.859" r="1.859" transform="translate(181.956 628.919)"/>
    <circle id="Ellipse_382" data-name="Ellipse 382" class="cls-2" cx="1.859" cy="1.859" r="1.859" transform="translate(294.719 628.919)"/>
    <circle id="Ellipse_383" data-name="Ellipse 383" class="cls-2" cx="1.859" cy="1.859" r="1.859" transform="translate(75.674 625.202)"/>
    <g id="Group_1374" data-name="Group 1374" transform="translate(-224.5 600.202)">
      <g id="Group_1365" data-name="Group 1365" transform="translate(27.814 11.229)">
        <path id="Path_2043" data-name="Path 2043" class="cls-3" d="M62.321,190.415a2.006,2.006,0,0,1-2-1.763A273.8,273.8,0,0,1,58.46,148c1-28.882,7.292-47.279,18.73-54.761a2.029,2.029,0,1,1,2.24,3.384c-7.054,4.623-15.728,17.253-16.872,51.473A276.3,276.3,0,0,0,64.37,188.08a2.064,2.064,0,0,1-1.716,2.288A.93.93,0,0,1,62.321,190.415Z" transform="translate(-58.333 -92.907)"/>
      </g>
      <g id="Group_1366" data-name="Group 1366" transform="translate(0 61.74)">
        <path id="Path_2044" data-name="Path 2044" class="cls-3" d="M30.965,217.576c-3.193,5.481-26.88,2.145-30.5-8.674-.1-.238-1.43-4.528.763-7.387,3.765-4.718,15.68-2.764,22.877,3.336C27.772,207.949,32.872,214.383,30.965,217.576Z" transform="translate(0.026 -198.888)"/>
      </g>
      <g id="Group_1367" data-name="Group 1367" transform="translate(11.528 36.273)">
        <path id="Path_2045" data-name="Path 2045" class="cls-3" d="M41.385,165.97c-8.579-.429-15.251-4.718-16.824-10.533-.667-2.478-.715-6.434,1.573-8.531,3.908-3.527,12.773-.143,17.253,4.957,1.382,1.573,4.528,5.052,3.384,8.96C45.722,164.254,42.052,165.684,41.385,165.97Z" transform="translate(-24.161 -145.454)"/>
      </g>
      <g id="Group_1368" data-name="Group 1368" transform="translate(27.702 16.842)">
        <path id="Path_2046" data-name="Path 2046" class="cls-3" d="M64.772,118.8c-1.906-1.811-6.577-6.577-6.672-11.248,0-.715-.048-2,.81-2.621.381-.286,1.287-.667,4.814,1.1,3.67,1.763,5.481,2.669,6.005,4.194C70.634,112.651,68.632,116.273,64.772,118.8Z" transform="translate(-58.099 -104.685)"/>
      </g>
      <g id="Group_1369" data-name="Group 1369" transform="translate(28.798 65.452)">
        <path id="Path_2047" data-name="Path 2047" class="cls-3" d="M62.067,215.267c3.527-6.434,11.248-7.387,19.684-8.436,1.954-.238,4.194-.381,5.624,1,1.668,1.62,1.239,4.48,1.144,5.052-.763,5.147-6.434,8.1-8.2,9.008-6.911,3.574-17.253,4.385-19.493.238C59.589,219.747,61.352,216.554,62.067,215.267Z" transform="translate(-60.398 -206.677)"/>
      </g>
      <g id="Group_1370" data-name="Group 1370" transform="translate(27.692 42.45)">
        <path id="Path_2048" data-name="Path 2048" class="cls-3" d="M60.471,172.61c5.195,3.86,18.969-.763,23.163-6.529a2.826,2.826,0,0,0-.143-3.67c-2.764-4.051-9.484-4.766-16.538-3.289-2.383.477-7.721,1.62-8.626,5.195C57.612,167.225,58.47,171.133,60.471,172.61Z" transform="translate(-58.078 -158.415)"/>
      </g>
      <g id="Group_1371" data-name="Group 1371" transform="translate(44.643)">
        <path id="Path_2049" data-name="Path 2049" class="cls-3" d="M95.244,74.281c-.572,1.191-2.86,6.005-.667,8.293a3.916,3.916,0,0,0,4.242.906c3.956-1.906,3.05-13.535.667-14.107C97.817,68.943,95.387,73.995,95.244,74.281Z" transform="translate(-93.645 -69.346)"/>
      </g>
      <g id="Group_1372" data-name="Group 1372" transform="translate(45.176 7.211)">
        <path id="Path_2050" data-name="Path 2050" class="cls-3" d="M105.075,85.3c-1.144-.286-8.055-2.145-9.866.906-1.049,1.763-.143,4.766,1.573,6.291,4.337,3.86,14.584-.81,14.584-3.574C111.366,86.966,106.361,85.631,105.075,85.3Z" transform="translate(-94.762 -84.476)"/>
      </g>
      <g id="Group_1373" data-name="Group 1373" transform="translate(35.733 21.738)">
        <path id="Path_2051" data-name="Path 2051" class="cls-3" d="M75.688,125.224c2.621-.191,9.246-1,12.249-4.575.429-.524,1.287-1.573,1-2.526-.1-.429-.572-1.287-4.432-2.192-3.956-.906-5.957-1.382-7.292-.524C74.973,116.74,74.258,120.839,75.688,125.224Z" transform="translate(-74.948 -114.956)"/>
      </g>
    </g>
    <g id="Group_1375" data-name="Group 1375" transform="translate(-154.761 634.352)">
      <path id="Path_2052" data-name="Path 2052" class="cls-4" d="M158.1,203.836s1.1-41.273,11.963-53.236" transform="translate(-152.476 -146.025)"/>
      <path id="Path_2053" data-name="Path 2053" class="cls-4" d="M173.928,201.9C159.82,203,158.2,229.59,158.2,229.59" transform="translate(-152.528 -172.875)"/>
      <path id="Path_2054" data-name="Path 2054" class="cls-4" d="M159.526,193.516S162.433,179.933,157,174.5" transform="translate(-151.9 -158.534)"/>
      <circle id="Ellipse_384" data-name="Ellipse 384" class="cls-5" cx="1.859" cy="1.859" r="1.859" transform="translate(18.444)"/>
      <circle id="Ellipse_385" data-name="Ellipse 385" class="cls-5" cx="1.859" cy="1.859" r="1.859" transform="translate(23.878 26.451)"/>
      <circle id="Ellipse_386" data-name="Ellipse 386" class="cls-5" cx="1.859" cy="1.859" r="1.859" transform="translate(0 11.486)"/>
    </g>
    <path id="Path_2055" data-name="Path 2055" class="cls-1" d="M438.662,265.033c-.1-2.669-.62-20.065,9.532-25.355.763-.381,5.957-3,10.152-.953,3.146,1.525,3.193,4.48,7.292,6.672,1.335.715,4.528,2.431,6.958,1.287,1.763-.858,2.669-3,4.146-14.918,1.144-9.2.667-8.722,1.287-10.485,1.763-5.195,6.339-11.629,13.964-13.964a21.669,21.669,0,0,1,16.157,1.573c4.528,2.383,4.051,4.432,10.152,8.579,4.337,2.955,9.294,6.291,13.3,4.766,3.289-1.287,2.574-4.528,7.292-9.2a20.947,20.947,0,0,1,9.532-5.719c5.957-1.43,14.107.238,17.777,5.386,3.05,4.289,1.382,8.722,5.719,12.058a8.028,8.028,0,0,0,4.432,1.906c4.337.334,6.291-3.908,11.438-6.958,1.191-.715,7.864-4.528,14.584-2.86,7.673,1.906,14.155,10.676,13.011,17.443-1.1,6.243-8.007,6.958-8.579,13.3-.524,6.005,5.147,10.962,6.005,11.724,8.1,7.149,18.158,3.67,19.969,7.769,1.668,3.813-5.147,10.962-11.438,15.728-30.884,23.306-68.535,2.24-141.454,5.719-9.341.429-31.122,1.859-38.366-9.818C438.948,274.517,438.8,269.751,438.662,265.033Z" transform="translate(-454.065 459.11)"/>
    <g id="Group_1376" data-name="Group 1376" transform="translate(49.938 634.257)">
      <path id="Path_2056" data-name="Path 2056" class="cls-4" d="M608.763,203.636s-1.1-41.273-11.963-53.236" transform="translate(-586.791 -145.825)"/>
      <path id="Path_2057" data-name="Path 2057" class="cls-4" d="M588.8,201.7c14.107,1.1,15.728,27.69,15.728,27.69" transform="translate(-582.604 -172.675)"/>
      <path id="Path_2058" data-name="Path 2058" class="cls-4" d="M616.847,193.316s-2.907-13.583,2.526-19.016" transform="translate(-596.877 -158.334)"/>
      <circle id="Ellipse_387" data-name="Ellipse 387" class="cls-5" cx="1.859" cy="1.859" r="1.859" transform="translate(5.433)"/>
      <circle id="Ellipse_388" data-name="Ellipse 388" class="cls-5" cx="1.859" cy="1.859" r="1.859" transform="translate(0 26.451)"/>
      <circle id="Ellipse_389" data-name="Ellipse 389" class="cls-5" cx="1.859" cy="1.859" r="1.859" transform="translate(23.925 11.486)"/>
    </g>
    <g id="Group_1390" data-name="Group 1390" transform="translate(-114.391 567.157)">
      <g id="Group_1377" data-name="Group 1377" transform="translate(15.534 21.896)">
        <path id="Path_2059" data-name="Path 2059" class="cls-6" d="M282.184,116.5s-8.674-41.607-13.392-53.045,1.668-12.963,1.668-12.963,10.39-6.291,10.819,11.2C281.755,79.182,282.184,116.5,282.184,116.5Z" transform="translate(-265.406 -47.751)"/>
        <path id="Path_2060" data-name="Path 2060" class="cls-6" d="M278.754,115.034c-.1-.429-8.674-41.559-13.3-52.759-2.1-5.147-2.431-9.151-.953-12.01a6.091,6.091,0,0,1,3.527-3.1c.906-.477,4.623-2.24,8.007-.381,3.241,1.763,4.957,6.2,5.147,13.106.429,17.3.858,54.475.858,54.809Zm-6.1-65.771a7.013,7.013,0,0,0-3.1.858l-.238.143-.238.048a2.922,2.922,0,0,0-1.62,1.525c-.667,1.334-1,4,1.1,9.151,2.812,6.911,7.006,24.211,9.961,37.27-.191-12.249-.429-28.5-.667-38.319-.143-5.529-1.334-9.055-3.384-10.247A4.046,4.046,0,0,0,272.654,49.263Z" transform="translate(-263.596 -45.952)"/>
      </g>
      <g id="Group_1378" data-name="Group 1378" transform="translate(2.061 35.595)">
        <path id="Path_2061" data-name="Path 2061" class="cls-3" d="M269.146,176.815l-8.817-30.693s-10.1-30.312-14.775-38.08c-4.623-7.721-13.917-22.829-7.721-29.692s11.581,0,11.581,0S267.145,92.124,269.146,176.815Z" transform="translate(-235.56 -75.012)"/>
        <path id="Path_2062" data-name="Path 2062" class="cls-3" d="M269.2,178.358l-9.341-32.5c-.1-.286-10.152-30.359-14.727-37.985l-.286-.524c-4.766-7.912-13.583-22.591-7.387-29.5q2.931-3.217,6.148-3.146c3.289.1,5.576,2.86,5.815,3.146.381.334,4.623,4,9.151,17.586,4.289,12.82,9.58,37.318,10.581,81.069ZM243.37,75.175c-1.906,0-3.813,1-5.576,3-5.957,6.625,2.764,21.113,7.435,28.93l.286.524c4.623,7.673,14.679,37.794,14.775,38.128l8.293,28.93c-2.145-81.975-19.4-96.321-19.541-96.416l-.048-.048a8.1,8.1,0,0,0-5.481-2.955C243.465,75.175,243.417,75.175,243.37,75.175Z" transform="translate(-235.329 -74.697)"/>
      </g>
      <g id="Group_1379" data-name="Group 1379" transform="translate(39.365 35.673)">
        <path id="Path_2063" data-name="Path 2063" class="cls-6" d="M317.6,164.454s2.717-84.977,18.444-86.026S347.53,89.247,347.53,89.247,335.663,132.522,317.6,164.454Z" transform="translate(-315.694 -76.693)"/>
        <path id="Path_2064" data-name="Path 2064" class="cls-6" d="M313.6,169.293l.238-6.768c0-.191.715-21.542,3.336-42.751,1.525-12.487,3.432-22.543,5.672-29.787,3-9.818,6.577-14.775,11.009-15.061,5.862-.381,9.913.858,12.106,3.765,2.812,3.717,1.287,8.579,1.1,9.246-.477,1.716-12.392,44.324-30.073,75.541Zm22.257-91.126c-.572,0-1.144,0-1.763.048-2.526.191-8.96,4.623-13.583,41.941-1.668,13.583-2.574,27.214-3,35.221,15.871-30.5,26.213-68.058,26.308-68.44l.048-.143c0-.048,1.287-3.717-.572-6.2C342.005,79.025,339.479,78.167,335.857,78.167Z" transform="translate(-313.6 -74.859)"/>
      </g>
      <g id="Group_1380" data-name="Group 1380" transform="translate(29.556)">
        <path id="Path_2065" data-name="Path 2065" class="cls-3" d="M301.414,156.257S292.5,41.588,293.6,17.567c.667-15.108,17.777-24.5,21.685-9.389s-6.291,78.591-6.291,78.591Z" transform="translate(-293.272 -0.271)"/>
        <path id="Path_2066" data-name="Path 2066" class="cls-3" d="M301.4,156.044h-.477c-.1-1.144-8.865-114.955-7.816-138.738C293.533,7.774,300.253.673,306.259.053c4.337-.429,7.578,2.383,9.008,7.816,1.62,6.291,1.1,21.447-1.668,45.039-2.049,17.539-4.575,33.5-4.623,33.648ZM307.116.482a4.624,4.624,0,0,0-.81.048c-5.815.62-12.3,7.483-12.725,16.776-.953,21.733,6.339,119.007,7.626,136.116L308.5,86.508c.048-.191,2.574-16.061,4.623-33.648,2.669-23.21,3.289-38.747,1.668-44.9C313.55,3.151,310.786.482,307.116.482Z" transform="translate(-293.017 -0.01)"/>
      </g>
      <g id="Group_1381" data-name="Group 1381" transform="translate(11.923 17.915)">
        <path id="Path_2067" data-name="Path 2067" class="cls-6" d="M282.51,175.718h-1.43c0-60-24.735-106.663-24.974-107.139a.7.7,0,0,1,1.239-.667c.238.429,19.683,37.175,24.211,87.408l2.907-117a.715.715,0,0,1,1.43,0Z" transform="translate(-256.021 -37.6)"/>
      </g>
      <g id="Group_1382" data-name="Group 1382" transform="translate(0 77.119)">
        <path id="Path_2068" data-name="Path 2068" class="cls-6" d="M269.331,228s-14.3-61.576-25.307-62.577c-10.962-1-9.675,9.723-9.675,9.723S233.3,183.2,241.4,192.212a226.95,226.95,0,0,1,18.4,24.116c.81,1.191,1.62,2.383,2.478,3.574,1.716,2.431,5.862,9.389,8.1,22.638v-7.054Z" transform="translate(-232.73 -163.674)"/>
        <path id="Path_2069" data-name="Path 2069" class="cls-6" d="M267.08,240.974c-2.192-12.916-6.2-19.684-7.816-21.971-1-1.382-1.763-2.526-2.478-3.622a235.038,235.038,0,0,0-18.254-23.925c-7.912-8.769-7.626-16.729-7.483-18.158-.1-1.049-.286-5.672,2.717-8.769,2.049-2.1,5-3,8.769-2.621,3.431.286,9.008,4.051,18.206,32.838,4.909,15.394,8.531,30.884,8.579,31.027l.048.143,1.1,7.721v7.054ZM240.963,165.2a6.6,6.6,0,0,0-4.861,1.668c-2.192,2.288-1.811,6.2-1.763,6.243v.191l-.048.191a14.043,14.043,0,0,0,.477,4.718,26.1,26.1,0,0,0,6.148,11.009,228.944,228.944,0,0,1,18.54,24.306c.715,1.049,1.477,2.192,2.478,3.527a32.834,32.834,0,0,1,3,5.29c-1.382-5.624-4.146-16.157-7.483-26.642-8.865-27.833-13.964-30.359-15.3-30.5Z" transform="translate(-231.004 -161.822)"/>
      </g>
      <g id="Group_1383" data-name="Group 1383" transform="translate(39.651 67.277)">
        <path id="Path_2070" data-name="Path 2070" class="cls-3" d="M314.7,210.235s6.434-42.274,17.062-57.954,18.492-9.294,18.492-9.294,9.77,4-.858,12.535S322.469,179.113,314.7,210.235Z" transform="translate(-314.462 -141.448)"/>
        <path id="Path_2071" data-name="Path 2071" class="cls-3" d="M314.677,210.006l-.477-.1c.048-.429,6.577-42.513,17.11-58.05,4.337-6.386,8.722-9.913,13.059-10.58a7.855,7.855,0,0,1,5.767,1.191c.381.143,3.717,1.668,4.194,4.718.381,2.478-1.334,5.243-5,8.2C337.077,165.205,322.111,180.266,314.677,210.006ZM345.7,141.661c-.381,0-.81.048-1.287.1-4.146.62-8.531,4.194-12.725,10.342-8.34,12.3-14.155,41.464-16.2,53,7.816-26.785,21.924-40.8,33.5-50.09,3.527-2.812,5.147-5.433,4.814-7.721-.429-2.907-3.86-4.337-3.908-4.385l-.048-.048A7.979,7.979,0,0,0,345.7,141.661Z" transform="translate(-314.2 -141.171)"/>
      </g>
      <g id="Group_1384" data-name="Group 1384" transform="translate(10.053 89.927)">
        <path id="Path_2072" data-name="Path 2072" class="cls-3" d="M279.741,255.469a.724.724,0,0,1-.715-.667c-1.716-25.021-26.594-64.627-26.832-65.008a.728.728,0,0,1,1.239-.763c.238.381,25.355,40.32,27.071,65.675a.732.732,0,0,1-.667.763Z" transform="translate(-252.096 -188.696)"/>
      </g>
      <g id="Group_1385" data-name="Group 1385" transform="translate(22.637 30.593)">
        <path id="Path_2073" data-name="Path 2073" class="cls-3" d="M289.224,103.52a.724.724,0,0,1-.715-.667c-.763-12.439-9.866-37.413-9.961-37.7a.708.708,0,1,1,1.334-.477c.381,1.049,9.294,25.45,10.056,38.08a.665.665,0,0,1-.715.763Z" transform="translate(-278.5 -64.2)"/>
      </g>
      <g id="Group_1386" data-name="Group 1386" transform="translate(40.409 48.608)">
        <path id="Path_2074" data-name="Path 2074" class="cls-3" d="M316.509,182.974h-.1a.713.713,0,0,1-.62-.81c4.528-40.511,19.493-79.306,19.636-79.687a.706.706,0,0,1,.906-.429.749.749,0,0,1,.429.906c-.143.381-15.06,39.033-19.541,79.354A.761.761,0,0,1,316.509,182.974Z" transform="translate(-315.789 -102)"/>
      </g>
      <g id="Group_1387" data-name="Group 1387" transform="translate(37.697 90.649)">
        <path id="Path_2075" data-name="Path 2075" class="cls-6" d="M310.1,255.548s.81-36.221,17.348-54.189,21.876-8.817,21.876-8.817,5.957,6.243-3.1,11.867C337.123,210.08,319.632,221.995,310.1,255.548Z" transform="translate(-310.1 -190.211)"/>
      </g>
      <g id="Group_1388" data-name="Group 1388" transform="translate(36.982 77.393)">
        <path id="Path_2076" data-name="Path 2076" class="cls-6" d="M309.315,241.7h-.048a.77.77,0,0,1-.667-.763c1.62-18.3,5.862-44.085,17.062-63.2,6.72-11.534,12.773-15.108,13.011-15.251a.695.695,0,1,1,.715,1.191h0c-.048.048-6.005,3.622-12.582,14.87-6.053,10.39-13.917,29.692-16.776,62.482A.692.692,0,0,1,309.315,241.7Z" transform="translate(-308.6 -162.396)"/>
      </g>
      <g id="Group_1389" data-name="Group 1389" transform="translate(36.982 100.365)">
        <path id="Path_2077" data-name="Path 2077" class="cls-3" d="M309.315,266.932h0a.742.742,0,0,1-.715-.763,73.558,73.558,0,0,1,15.823-42.322,59.118,59.118,0,0,1,14.25-13.154.763.763,0,0,1,1,.238.718.718,0,0,1-.238,1A58.808,58.808,0,0,0,325.567,224.8a72.29,72.29,0,0,0-15.489,41.464A.771.771,0,0,1,309.315,266.932Z" transform="translate(-308.6 -210.596)"/>
      </g>
    </g>
    <path id="Path_2078" data-name="Path 2078" class="cls-4" d="M417.8,231c1.954-2.335,10.723-13.3,7.578-24.974a20.232,20.232,0,0,0-1.859-4.528" transform="translate(-443.164 461.687)"/>
    <path id="Path_2079" data-name="Path 2079" class="cls-4" d="M415.2,225.7s.763,6.625,7.149,8.483" transform="translate(-441.804 449.02)"/>
    <circle id="Ellipse_390" data-name="Ellipse 390" class="cls-5" cx="1.859" cy="1.859" r="1.859" transform="translate(-23.124 657.992)"/>
    <circle id="Ellipse_391" data-name="Ellipse 391" class="cls-5" cx="1.859" cy="1.859" r="1.859" transform="translate(-30.321 669.335)"/>
    <path id="Path_2080" data-name="Path 2080" class="cls-4" d="M853.2,234.7c1.954-2.335,10.723-13.3,7.578-24.974a20.225,20.225,0,0,0-1.859-4.528" transform="translate(-671.054 459.75)"/>
    <path id="Path_2081" data-name="Path 2081" class="cls-4" d="M850.6,229.5s.763,6.625,7.149,8.483" transform="translate(-669.693 447.031)"/>
    <circle id="Ellipse_392" data-name="Ellipse 392" class="cls-5" cx="1.859" cy="1.859" r="1.859" transform="translate(184.434 659.755)"/>
    <circle id="Ellipse_393" data-name="Ellipse 393" class="cls-5" cx="1.859" cy="1.859" r="1.859" transform="translate(177.237 671.098)"/>
    <g id="Group_1408" data-name="Group 1408" transform="translate(-11.543 581.116)">
      <g id="Group_1392" data-name="Group 1392" transform="translate(7.816 36.483)">
        <g id="Group_1391" data-name="Group 1391" transform="translate(0 0)">
          <path id="Path_2082" data-name="Path 2082" class="cls-1" d="M463.2,107.828a34.858,34.858,0,0,0,15.108,17.92c5.624,2.717,10.581,1.43,13.44-4.051h0a10.671,10.671,0,0,0,1.048-7.1c-.62-3.289-3.146-4.957-6.434-6.577C474.448,103.252,463.2,107.828,463.2,107.828Z" transform="translate(-463.2 -105.849)"/>
        </g>
      </g>
      <g id="Group_1394" data-name="Group 1394" transform="translate(0 65.212)">
        <g id="Group_1393" data-name="Group 1393">
          <path id="Path_2083" data-name="Path 2083" class="cls-1" d="M446.8,173.645a34.684,34.684,0,0,0,20.208,11.867c6.2.715,10.438-2.145,11.343-8.293h0a10.64,10.64,0,0,0-1.382-7.006c-1.668-2.86-4.623-3.622-8.293-4.051C455.9,165.543,446.8,173.645,446.8,173.645Z" transform="translate(-446.8 -166.129)"/>
        </g>
      </g>
      <g id="Group_1396" data-name="Group 1396" transform="translate(41.961 41.007)">
        <g id="Group_1395" data-name="Group 1395" transform="translate(0 0)">
          <path id="Path_2084" data-name="Path 2084" class="cls-1" d="M567.04,118.753s-12.439-5.195-23.639-2.764c-6.1,1.477-9.58,4.861-8.293,10.914h0a8.98,8.98,0,0,0,4.146,5.957c4.194,2.288,8.2.81,9.77.429C563.275,128.523,567.04,118.753,567.04,118.753Z" transform="translate(-534.842 -115.341)"/>
        </g>
      </g>
      <g id="Group_1398" data-name="Group 1398" transform="translate(35.447 66.219)">
        <g id="Group_1397" data-name="Group 1397">
          <path id="Path_2085" data-name="Path 2085" class="cls-1" d="M552.023,172.463s-5.815,11.343-17.587,14.2c-5.767,1-10.533,1.382-12.63-4.48h0a10.822,10.822,0,0,1-.048-7.149c1.1-3.146,3.813-4.48,7.292-5.624C543.778,165.552,552.023,172.463,552.023,172.463Z" transform="translate(-521.175 -168.24)"/>
        </g>
      </g>
      <g id="Group_1399" data-name="Group 1399" transform="translate(6.908 56.181)">
        <circle id="Ellipse_394" data-name="Ellipse 394" class="cls-2" cx="1.859" cy="1.859" r="1.859" transform="matrix(0.978, -0.211, 0.211, 0.978, 0, 0.783)"/>
      </g>
      <g id="Group_1400" data-name="Group 1400" transform="translate(38.366)">
        <circle id="Ellipse_395" data-name="Ellipse 395" class="cls-1" cx="17.253" cy="17.253" r="17.253"/>
      </g>
      <g id="Group_1401" data-name="Group 1401" transform="translate(23.094 15.202)">
        <path id="Path_2086" data-name="Path 2086" class="cls-3" d="M502.235,157.28l-1.43-.048c.143-3.622-.477-13.2-5-14.25a.711.711,0,0,1,.334-1.382c2.955.715,4.48,3.86,5.29,7.149a308.5,308.5,0,0,1,4.718-32.742c5.91-28.93,14.87-47.374,26.642-54.713a.727.727,0,1,1,.763,1.239C506.239,79.547,502.283,156.518,502.235,157.28Z" transform="translate(-495.256 -61.196)"/>
      </g>
      <g id="Group_1402" data-name="Group 1402" transform="translate(18.605 42.149)">
        <path id="Path_2087" data-name="Path 2087" class="cls-3" d="M509.744,130.444c-1.239,0-2.574-.048-3.908-.143-.381-.048-8.722-.906-19.779-11.343a.709.709,0,1,1,.953-1.049,47.9,47.9,0,0,0,13.535,9.294,21.64,21.64,0,0,0,5.386,1.668,39.2,39.2,0,0,0,17.443-2.24,21.806,21.806,0,0,0,5.672-3.146.735.735,0,0,1,1,.048.691.691,0,0,1-.048,1C529.714,124.82,523.232,130.444,509.744,130.444Z" transform="translate(-485.837 -117.737)"/>
      </g>
      <g id="Group_1403" data-name="Group 1403" transform="translate(12.576 72.974)">
        <path id="Path_2088" data-name="Path 2088" class="cls-3" d="M500.931,188.222a24.741,24.741,0,0,1-7.149-.953l-.143-.048A30.857,30.857,0,0,0,474,184.266a.7.7,0,0,1-.238-1.382c11.629-1.906,19.636,2.574,20.541,3.1a28.976,28.976,0,0,0,19.826-2.192.714.714,0,0,1,.62,1.287A32.689,32.689,0,0,1,500.931,188.222Z" transform="translate(-473.187 -182.415)"/>
      </g>
      <g id="Group_1404" data-name="Group 1404" transform="translate(28.638 93.345)">
        <path id="Path_2089" data-name="Path 2089" class="cls-3" d="M507.608,243.764h-.143a.755.755,0,0,1-.572-.858,36.515,36.515,0,0,1,2.717-7.816c2.621-5.386,6.2-8.817,10.39-9.913a.711.711,0,0,1,.334,1.382c-9.151,2.431-12.01,16.49-12.058,16.633A.635.635,0,0,1,507.608,243.764Z" transform="translate(-506.887 -225.156)"/>
      </g>
      <g id="Group_1405" data-name="Group 1405" transform="translate(51.037 9.482)">
        <path id="Path_2090" data-name="Path 2090" class="cls-3" d="M554.608,65.259a.6.6,0,0,1-.286-.048.718.718,0,0,1-.381-.953c1.334-3.05,3.956-11.391.286-13.726a.727.727,0,0,1,.763-1.239c5.481,3.432.477,15.013.286,15.489A.74.74,0,0,1,554.608,65.259Z" transform="translate(-553.886 -49.196)"/>
      </g>
      <g id="Group_1406" data-name="Group 1406" transform="translate(16.919 94.081)">
        <circle id="Ellipse_396" data-name="Ellipse 396" class="cls-2" cx="2.145" cy="2.145" r="2.145"/>
      </g>
      <g id="Group_1407" data-name="Group 1407" transform="translate(44.896 91.03)">
        <circle id="Ellipse_397" data-name="Ellipse 397" class="cls-2" cx="2.049" cy="2.049" r="2.049"/>
      </g>
    </g>
    <g id="Group_1436" data-name="Group 1436" transform="translate(81.125 604.118)">
      <g id="Group_1427" data-name="Group 1427" transform="translate(23.654 9.605)">
        <path id="Path_2100" data-name="Path 2100" class="cls-3" d="M694.267,180.779a1.74,1.74,0,0,1-1.716-1.477,239.226,239.226,0,0,1-1.573-34.649c.81-24.592,6.2-40.32,15.966-46.659A1.725,1.725,0,1,1,708.8,100.9c-6.005,3.908-13.392,14.727-14.393,43.895a223.9,223.9,0,0,0,1.573,34.077,1.723,1.723,0,0,1-1.477,1.954A.518.518,0,0,0,694.267,180.779Z" transform="translate(-690.869 -97.715)"/>
      </g>
      <g id="Group_1428" data-name="Group 1428" transform="translate(0 52.698)">
        <path id="Path_2101" data-name="Path 2101" class="cls-3" d="M667.623,204.035c-2.717,4.671-22.924,1.811-25.975-7.387-.048-.191-1.239-3.86.667-6.291,3.193-4,13.345-2.335,19.493,2.86C664.859,195.838,669.2,201.271,667.623,204.035Z" transform="translate(-641.237 -188.132)"/>
      </g>
      <g id="Group_1429" data-name="Group 1429" transform="translate(9.741 31.004)">
        <path id="Path_2102" data-name="Path 2102" class="cls-3" d="M676.367,160.051c-7.292-.381-13.011-4.051-14.346-8.96-.572-2.1-.62-5.481,1.334-7.244,3.336-3,10.866-.1,14.727,4.194,1.192,1.334,3.86,4.337,2.86,7.626C680.084,158.574,676.939,159.813,676.367,160.051Z" transform="translate(-661.676 -142.615)"/>
      </g>
      <g id="Group_1430" data-name="Group 1430" transform="translate(23.573 14.345)">
        <path id="Path_2103" data-name="Path 2103" class="cls-3" d="M696.371,119.737c-1.62-1.525-5.576-5.624-5.672-9.627,0-.572-.048-1.716.667-2.24.334-.238,1.1-.572,4.1.906,3.1,1.525,4.671,2.288,5.147,3.574C701.327,114.494,699.659,117.592,696.371,119.737Z" transform="translate(-690.699 -107.66)"/>
      </g>
      <g id="Group_1431" data-name="Group 1431" transform="translate(24.515 55.796)">
        <path id="Path_2104" data-name="Path 2104" class="cls-3" d="M694.069,201.957c3-5.481,9.58-6.291,16.776-7.2,1.668-.191,3.574-.334,4.814.858,1.43,1.382,1.048,3.813,1,4.289-.667,4.385-5.481,6.911-7.006,7.673-5.91,3.05-14.679,3.717-16.586.238C691.972,205.817,693.449,203.053,694.069,201.957Z" transform="translate(-692.674 -194.632)"/>
      </g>
      <g id="Group_1432" data-name="Group 1432" transform="translate(23.572 36.214)">
        <path id="Path_2105" data-name="Path 2105" class="cls-3" d="M692.7,165.63c4.432,3.289,16.157-.62,19.731-5.529a2.513,2.513,0,0,0-.1-3.146c-2.335-3.479-8.1-4.051-14.06-2.812-2,.429-6.577,1.382-7.34,4.432C690.268,161.054,691.031,164.391,692.7,165.63Z" transform="translate(-690.695 -153.546)"/>
      </g>
      <g id="Group_1433" data-name="Group 1433" transform="translate(37.99)">
        <path id="Path_2106" data-name="Path 2106" class="cls-3" d="M722.308,81.822c-.477,1.049-2.431,5.1-.572,7.054a3.317,3.317,0,0,0,3.622.763c3.384-1.62,2.621-11.534.572-12.058C724.5,77.246,722.451,81.583,722.308,81.822Z" transform="translate(-720.949 -77.562)"/>
      </g>
      <g id="Group_1434" data-name="Group 1434" transform="translate(38.435 6.188)">
        <path id="Path_2107" data-name="Path 2107" class="cls-3" d="M730.659,91.239c-.953-.238-6.863-1.811-8.388.763-.906,1.477-.143,4.051,1.334,5.338,3.717,3.289,12.439-.715,12.439-3.05C736,92.668,731.756,91.524,730.659,91.239Z" transform="translate(-721.881 -90.545)"/>
      </g>
      <g id="Group_1435" data-name="Group 1435" transform="translate(30.387 18.56)">
        <path id="Path_2108" data-name="Path 2108" class="cls-3" d="M705.617,125.224c2.24-.191,7.864-.858,10.438-3.908.381-.429,1.1-1.334.858-2.145-.1-.381-.477-1.1-3.765-1.859-3.384-.763-5.052-1.144-6.243-.429C705,118.027,704.426,121.506,705.617,125.224Z" transform="translate(-704.996 -116.504)"/>
      </g>
    </g>
    <g id="Group_1450" data-name="Group 1450" transform="translate(136.706 610.022)">
      <g id="Group_1437" data-name="Group 1437" transform="translate(8.292 11.634)">
        <path id="Path_2109" data-name="Path 2109" class="cls-6" d="M785.057,151.491S780.482,129.52,778,123.419c-2.478-6.053.906-6.863.906-6.863s5.481-3.336,5.719,5.91S785.057,151.491,785.057,151.491Z" transform="translate(-776.218 -115.202)"/>
        <path id="Path_2110" data-name="Path 2110" class="cls-6" d="M783.235,150.838c-.048-.238-4.575-21.971-7.006-27.881-1.1-2.717-1.287-4.861-.477-6.339a2.993,2.993,0,0,1,1.859-1.62,4.663,4.663,0,0,1,4.242-.191c1.716.953,2.621,3.289,2.717,6.911.238,9.151.477,28.787.477,28.977Zm-3.193-34.792a2.947,2.947,0,0,0-1.62.477l-.143.1h-.1a1.524,1.524,0,0,0-.858.81c-.334.715-.524,2.145.572,4.861,1.477,3.67,3.717,12.82,5.243,19.684-.1-6.482-.238-15.061-.334-20.255-.048-2.907-.715-4.814-1.811-5.433A1.88,1.88,0,0,0,780.042,116.047Z" transform="translate(-775.254 -114.359)"/>
      </g>
      <g id="Group_1438" data-name="Group 1438" transform="translate(1.176 18.8)">
        <path id="Path_2111" data-name="Path 2111" class="cls-3" d="M778.1,183.3l-4.671-16.252s-5.338-16.014-7.816-20.112-7.34-12.058-4.1-15.728,6.148,0,6.148,0S777.052,138.548,778.1,183.3Z" transform="translate(-760.383 -129.49)"/>
        <path id="Path_2112" data-name="Path 2112" class="cls-3" d="M778.185,184.206l-4.909-17.158c-.048-.143-5.386-16.061-7.769-20.112l-.143-.286c-2.526-4.194-7.2-11.963-3.908-15.585A4.122,4.122,0,0,1,764.7,129.4a4.425,4.425,0,0,1,3.1,1.668c.191.191,2.431,2.1,4.861,9.294,2.24,6.768,5.052,19.731,5.624,42.846Zm-13.631-54.523a4.081,4.081,0,0,0-2.955,1.573c-3.146,3.479,1.477,11.152,3.956,15.3l.143.286c2.431,4.051,7.769,19.969,7.816,20.16l4.385,15.3c-1.144-43.323-10.247-50.9-10.342-51h0a4.318,4.318,0,0,0-2.907-1.573A.148.148,0,0,0,764.554,129.683Z" transform="translate(-760.324 -129.394)"/>
      </g>
      <g id="Group_1439" data-name="Group 1439" transform="translate(20.896 18.866)">
        <path id="Path_2113" data-name="Path 2113" class="cls-6" d="M803.8,176.827s1.43-44.9,9.77-45.467c8.293-.572,6.053,5.719,6.053,5.719S813.332,160,803.8,176.827Z" transform="translate(-802.799 -130.47)"/>
        <path id="Path_2114" data-name="Path 2114" class="cls-6" d="M801.7,179.465l.1-3.574c0-.1.381-11.391,1.763-22.591a95.139,95.139,0,0,1,3-15.775c1.573-5.195,3.479-7.816,5.815-7.959,3.1-.191,5.243.477,6.386,2a5.5,5.5,0,0,1,.572,4.861c-.238.906-6.529,23.449-15.918,39.939Zm11.724-48.184a6.713,6.713,0,0,0-.953.048c-1.334.1-4.718,2.431-7.2,22.162-.906,7.2-1.382,14.393-1.573,18.635,8.388-16.109,13.869-35.983,13.917-36.174V135.9a3.983,3.983,0,0,0-.334-3.289C816.713,131.71,815.331,131.281,813.424,131.281Z" transform="translate(-801.7 -129.533)"/>
      </g>
      <g id="Group_1440" data-name="Group 1440" transform="translate(15.7)">
        <path id="Path_2115" data-name="Path 2115" class="cls-3" d="M795.194,172.536s-4.718-60.623-4.146-73.348c.334-8.007,9.389-12.963,11.486-4.957S799.2,135.79,799.2,135.79Z" transform="translate(-790.903 -90.06)"/>
        <path id="Path_2116" data-name="Path 2116" class="cls-3" d="M795.231,172.425h-.238c-.048-.62-4.718-60.766-4.146-73.348.238-5.052,3.765-8.769,6.958-9.1,2.288-.238,4,1.287,4.766,4.146.858,3.336.572,11.343-.858,23.83-1.1,9.294-2.431,17.682-2.431,17.777Zm3-82.213H797.8c-3.1.334-6.529,3.956-6.72,8.865-.524,11.486,3.336,62.911,4.051,71.966L799,135.631c0-.1,1.382-8.483,2.431-17.777,1.43-12.249,1.716-20.494.906-23.735C801.618,91.594,800.188,90.212,798.234,90.212Z" transform="translate(-790.798 -89.949)"/>
      </g>
      <g id="Group_1441" data-name="Group 1441" transform="translate(6.359 9.461)">
        <path id="Path_2117" data-name="Path 2117" class="cls-6" d="M785.212,182.815h-.763a132.214,132.214,0,0,0-13.2-56.62.384.384,0,1,1,.667-.381,133.6,133.6,0,0,1,12.821,46.23l1.525-61.862a.381.381,0,1,1,.762,0Z" transform="translate(-771.2 -109.8)"/>
      </g>
      <g id="Group_1442" data-name="Group 1442" transform="translate(0 40.828)">
        <path id="Path_2118" data-name="Path 2118" class="cls-6" d="M778.261,210.438s-7.578-32.552-13.392-33.076-5.1,5.147-5.1,5.147-.572,4.242,3.717,9.008a125.387,125.387,0,0,1,9.723,12.725c.429.62.858,1.287,1.287,1.906.906,1.287,3.1,4.957,4.289,11.963v-3.717Z" transform="translate(-758.843 -176.511)"/>
        <path id="Path_2119" data-name="Path 2119" class="cls-6" d="M776.989,217.4c-1.144-6.815-3.289-10.39-4.146-11.629-.524-.715-.953-1.334-1.334-1.906a120.973,120.973,0,0,0-9.675-12.63c-4.194-4.623-4-8.865-3.956-9.58a6.229,6.229,0,0,1,1.43-4.623,5.452,5.452,0,0,1,4.623-1.382c1.811.143,4.766,2.145,9.627,17.348,2.621,8.15,4.528,16.347,4.528,16.395v.1l.572,4.1v3.717Zm-13.821-40.082a3.325,3.325,0,0,0-2.574.906,4.492,4.492,0,0,0-.953,3.289v.191a8.67,8.67,0,0,0,.238,2.478A13.707,13.707,0,0,0,763.12,190a127.95,127.95,0,0,1,9.818,12.821c.381.572.81,1.144,1.287,1.859a15.794,15.794,0,0,1,1.573,2.812c-.763-2.955-2.192-8.531-3.956-14.107-4.671-14.727-7.387-16.061-8.1-16.109A2.135,2.135,0,0,1,763.168,177.323Z" transform="translate(-757.857 -175.614)"/>
      </g>
      <g id="Group_1443" data-name="Group 1443" transform="translate(21.039 35.565)">
        <path id="Path_2120" data-name="Path 2120" class="cls-3" d="M802.2,201.1s3.432-22.352,9.008-30.645c5.624-8.293,9.77-4.909,9.77-4.909s5.147,2.1-.429,6.625C814.925,176.654,806.346,184.613,802.2,201.1Z" transform="translate(-802.105 -164.726)"/>
        <path id="Path_2121" data-name="Path 2121" class="cls-3" d="M802.238,200.95,802,200.9c.048-.238,3.479-22.5,9.055-30.693,2.288-3.384,4.623-5.243,6.911-5.576a4.192,4.192,0,0,1,3.05.62,3.8,3.8,0,0,1,2.192,2.526c.191,1.334-.715,2.764-2.621,4.337C814.058,177.263,806.146,185.222,802.238,200.95Zm16.4-36.126a3.376,3.376,0,0,0-.667.048c-2.192.334-4.528,2.24-6.72,5.481-4.432,6.482-7.483,21.924-8.579,28.024a49.939,49.939,0,0,1,17.729-26.5c1.859-1.477,2.717-2.86,2.526-4.1-.238-1.525-2.049-2.288-2.049-2.335h-.048A4.309,4.309,0,0,0,818.633,164.824Z" transform="translate(-802 -164.572)"/>
      </g>
      <g id="Group_1444" data-name="Group 1444" transform="translate(5.357 47.587)">
        <path id="Path_2122" data-name="Path 2122" class="cls-3" d="M783.729,225.066a.368.368,0,0,1-.381-.334c-.906-13.2-14.06-34.172-14.2-34.363a.377.377,0,1,1,.62-.429c.143.191,13.392,21.3,14.3,34.7a.371.371,0,0,1-.334.429Z" transform="translate(-769.096 -189.796)"/>
      </g>
      <g id="Group_1445" data-name="Group 1445" transform="translate(12.048 16.198)">
        <path id="Path_2123" data-name="Path 2123" class="cls-3" d="M788.79,144.7a.368.368,0,0,1-.381-.334c-.381-6.577-5.195-19.779-5.243-19.922a.377.377,0,1,1,.715-.238c.191.524,4.909,13.44,5.29,20.16a.369.369,0,0,1-.381.334Z" transform="translate(-783.136 -123.936)"/>
      </g>
      <g id="Group_1446" data-name="Group 1446" transform="translate(21.42 25.701)">
        <path id="Path_2124" data-name="Path 2124" class="cls-3" d="M803.181,186.685h0a.417.417,0,0,1-.381-.429c2.383-21.4,10.294-41.941,10.39-42.131a.377.377,0,0,1,.715.238c-.1.191-7.959,20.637-10.342,41.941C803.515,186.542,803.372,186.685,803.181,186.685Z" transform="translate(-802.8 -143.875)"/>
      </g>
      <g id="Group_1447" data-name="Group 1447" transform="translate(19.99 47.94)">
        <path id="Path_2125" data-name="Path 2125" class="cls-6" d="M799.8,225.073s.429-19.159,9.151-28.644,11.581-4.671,11.581-4.671,3.146,3.289-1.668,6.291S804.852,207.343,799.8,225.073Z" transform="translate(-799.8 -190.537)"/>
      </g>
      <g id="Group_1448" data-name="Group 1448" transform="translate(19.609 40.916)">
        <path id="Path_2126" data-name="Path 2126" class="cls-6" d="M799.381,217.741h0a.389.389,0,0,1-.381-.429c.858-9.675,3.1-23.306,9.008-33.41,3.574-6.1,6.72-7.959,6.863-8.055a.384.384,0,1,1,.381.667h0c-.048,0-3.193,1.906-6.625,7.864-3.193,5.481-7.34,15.68-8.865,33.028A.409.409,0,0,1,799.381,217.741Z" transform="translate(-799 -175.8)"/>
      </g>
      <g id="Group_1449" data-name="Group 1449" transform="translate(19.609 53.07)">
        <path id="Path_2127" data-name="Path 2127" class="cls-3" d="M799.381,231.087h0a.376.376,0,0,1-.381-.381,38.757,38.757,0,0,1,8.388-22.4,30.921,30.921,0,0,1,7.53-6.958.384.384,0,1,1,.381.667,30.628,30.628,0,0,0-7.34,6.815,38.052,38.052,0,0,0-8.2,21.924A.409.409,0,0,1,799.381,231.087Z" transform="translate(-799 -201.3)"/>
      </g>
    </g>
  </g>
</svg>
