<svg xmlns="http://www.w3.org/2000/svg" viewBox="4143 930.5 99.271 83">
  <defs>
    <style>
      .cls-1 {
        fill: #edd5b7;
      }

      .cls-2 {
        fill: #3d5b6c;
      }

      .cls-3 {
        fill: #c1e6ea;
      }
    </style>
  </defs>
  <g id="Symbol_71_7" data-name="Symbol 71 – 7" transform="translate(4005 831)">
    <g id="Group_1589" data-name="Group 1589" transform="translate(152.064 99.5)">
      <path id="Path_2287" data-name="Path 2287" class="cls-1" d="M71.673,12.457c0-3.689-6.587-6.587-14.492-6.587H55.6C52.175,2.708,46.114.6,38.737.6,31.622.6,25.3,2.708,21.873,5.87H20.292c-7.9,0-14.492,2.9-14.492,6.587l13.7-.263H42.689Z" transform="translate(-4.483 0.981)"/>
      <path id="Path_2288" data-name="Path 2288" class="cls-2" d="M73.808,14.756,5.3,14.492V13.175c0-4.479,6.851-7.9,15.81-7.9h1.317C26.116,2.108,32.44,0,39.554,0h.263c7.114,0,13.438,2.108,17.127,5.27h1.317a27.219,27.219,0,0,1,10.8,2.108c3.162,1.581,5.006,3.689,5.006,5.8Zm-65.346-2.9,62.184.263a9.3,9.3,0,0,0-2.9-2.371A26.772,26.772,0,0,0,58,7.9H55.89l-.527-.527C52.2,4.216,46.141,2.371,39.554,2.371H39.29c-6.587,0-12.648,1.844-15.81,5.006l-.263.527H20.846C14.786,7.9,9.779,9.749,8.462,11.857Z" transform="translate(-5.3)"/>
    </g>
    <g id="Group_1590" data-name="Group 1590" transform="translate(203.445 112.675)">
      <path id="Path_2289" data-name="Path 2289" class="cls-3" d="M24.8,18.175H52.73a2.566,2.566,0,0,0,2.635-2.108l1.844-7.9A2.827,2.827,0,0,0,54.311,5H24.8Z" transform="translate(-24.8 -5)"/>
    </g>
    <g id="Group_1591" data-name="Group 1591" transform="translate(138 111.357)">
      <path id="Path_2290" data-name="Path 2290" class="cls-2" d="M93.6,20.31H5.595a4.2,4.2,0,0,1-3.952-3.162L.061,9.243a3.463,3.463,0,0,1,.79-3.162A3.756,3.756,0,0,1,4.014,4.5H95.182a4.364,4.364,0,0,1,3.162,1.317,3.463,3.463,0,0,1,.79,3.162l-1.581,7.9A4.165,4.165,0,0,1,93.6,20.31ZM4.014,7.135a2,2,0,0,0-1.054.527A1.584,1.584,0,0,0,2.7,8.716l1.581,7.9c0,.527.79,1.054,1.317,1.054H93.6a1.751,1.751,0,0,0,1.317-1.054l1.581-7.9a1.584,1.584,0,0,0-.263-1.054,1.369,1.369,0,0,0-1.054-.527Z" transform="translate(0.038 -4.5)"/>
    </g>
    <g id="Group_1592" data-name="Group 1592" transform="translate(207.397 125.849)">
      <path id="Path_2291" data-name="Path 2291" class="cls-3" d="M26.3,10V65.333h1.581a7.91,7.91,0,0,0,7.641-6.06L47.379,10Z" transform="translate(-26.3 -10)"/>
    </g>
    <g id="Group_1593" data-name="Group 1593" transform="translate(144.95 124.532)">
      <path id="Path_2292" data-name="Path 2292" class="cls-2" d="M66.629,67.468H23.679a9.268,9.268,0,0,1-8.959-7.114L2.6,9.5H87.708L75.587,60.354A9.268,9.268,0,0,1,66.629,67.468ZM6.025,12.135l11.33,47.692a6.726,6.726,0,0,0,6.324,5.006H66.629a6.279,6.279,0,0,0,6.324-5.006l11.33-47.692Z" transform="translate(-2.6 -9.5)"/>
    </g>
    <g id="Group_1594" data-name="Group 1594" transform="translate(169.191 140.341)">
      <circle id="Ellipse_430" data-name="Ellipse 430" class="cls-2" cx="3.952" cy="3.952" r="3.952"/>
    </g>
    <g id="Group_1595" data-name="Group 1595" transform="translate(198.175 140.341)">
      <circle id="Ellipse_431" data-name="Ellipse 431" class="cls-2" cx="3.952" cy="3.952" r="3.952"/>
    </g>
    <ellipse id="Ellipse_432" data-name="Ellipse 432" class="cls-2" cx="6.587" cy="8.432" rx="6.587" ry="8.432" transform="translate(181.312 155.624)"/>
  </g>
</svg>
