<svg xmlns="http://www.w3.org/2000/svg" viewBox="482 312.115 147 86.62">
  <defs>
    <style>
      .cls-1 {
        fill: #00a7ce;
      }

      .cls-2 {
        fill: #a4d55d;
      }
    </style>
  </defs>
  <g id="Symbol_22_1" data-name="Symbol 22 – 1" transform="translate(368 196)">
    <g id="Group_135" data-name="Group 135" transform="translate(114 116.115)">
      <path id="Path_505" data-name="Path 505" class="cls-1" d="M26.882,70.738v14.5A11.24,11.24,0,0,1,15.653,96.463,11.43,11.43,0,0,1,4.628,87.615C4.015,85.1,0,85.233,0,85.233a15.585,15.585,0,0,0,31.169,0V59.985a15.556,15.556,0,1,0-4.287,10.753Zm0-10.753A11.229,11.229,0,1,1,15.653,48.756,11.24,11.24,0,0,1,26.882,59.985Z" transform="translate(0 -14.198)"/>
      <path id="Path_506" data-name="Path 506" class="cls-1" d="M87.285,44.3a15.619,15.619,0,1,0,15.585,15.653A15.626,15.626,0,0,0,87.285,44.3Zm0,26.882A11.229,11.229,0,1,1,98.514,59.953,11.24,11.24,0,0,1,87.285,71.182Z" transform="translate(-22.904 -14.166)"/>
      <path id="Path_507" data-name="Path 507" class="cls-1" d="M120.1,16.789V50.817a15.619,15.619,0,1,0,15.653-15.585,15.3,15.3,0,0,0-11.229,4.832V21.485c0-1.293-1.361-2.926-2.518-4.083l-.136-.136a6.307,6.307,0,0,0-.953-.953c-.136-.136-.34-.272-.476-.408a.94.94,0,0,0-.272-.2Zm15.653,45.257a11.229,11.229,0,1,1,11.229-11.229A11.24,11.24,0,0,1,135.753,62.046Z" transform="translate(-38.365 -5.03)"/>
      <path id="Path_508" data-name="Path 508" class="cls-1" d="M183.685,44.3a15.585,15.585,0,1,0,15.585,15.585A15.626,15.626,0,0,0,183.685,44.3Zm0,26.882a11.229,11.229,0,1,1,11.229-11.229A11.24,11.24,0,0,1,183.685,71.182Z" transform="translate(-53.699 -14.166)"/>
      <g id="Group_134" data-name="Group 134" transform="translate(33.143 30.134)">
        <path id="Path_509" data-name="Path 509" class="cls-1" d="M64.285,44.3A15.626,15.626,0,0,0,48.7,59.885V73.36a2.178,2.178,0,1,0,4.356,0V59.953A11.111,11.111,0,0,1,64.285,48.724c1.361-.136,2.042-4.219,2.042-4.219A10.387,10.387,0,0,0,64.285,44.3Z" transform="translate(-48.7 -44.3)"/>
      </g>
      <path id="Path_510" data-name="Path 510" class="cls-2" d="M79.929,4.158s6.942-1.769,12.931-.681A24.1,24.1,0,0,1,104.5,8.65a16.774,16.774,0,0,0-1.7-3.063,12.3,12.3,0,0,0-1.974-2.246,10.947,10.947,0,0,0-2.314-1.633,2.109,2.109,0,0,0-.885-.408A10.048,10.048,0,0,0,95.786.619,11.932,11.932,0,0,0,92.315.075a20.315,20.315,0,0,0-4.968.272,33.929,33.929,0,0,0-7.418,1.906,37.333,37.333,0,0,0-3.471,1.429A16.018,16.018,0,0,0,73.6,5.111c.885.272,1.838.408,2.722.749A20.24,20.24,0,0,1,80.2,7.7c1.293.749,2.518,1.565,3.743,2.246a24.6,24.6,0,0,0,3.811,1.837c.681.272,1.361.476,2.042.681a8.312,8.312,0,0,0,1.769.408,12.253,12.253,0,0,0,3.539.272,23.675,23.675,0,0,0,7.962-1.838,3.428,3.428,0,0,1,2.042-.613C96.194,1.368,79.929,4.158,79.929,4.158Z" transform="translate(-23.511 -0.022)"/>
    </g>
  </g>
</svg>
