<svg xmlns="http://www.w3.org/2000/svg" viewBox="0 0 500.25 500.25"><defs><style>.cls-1{fill:#c1e6ea;}.cls-2,.cls-4{fill:none;stroke-miterlimit:10;}.cls-2{stroke:#3d5b6c;stroke-width:5px;}.cls-3{fill:#3d5b6c;}.cls-4{stroke:#000;stroke-width:0.25px;opacity:0;}</style></defs><title>Try Me Squarey</title><g id="Layer_1" data-name="Layer 1"><g id="Layer_5" data-name="Layer 5"><polygon class="cls-1" points="385.93 403.13 349.38 411.86 349.38 148.04 454.7 148.04 385.93 403.13"/><polygon class="cls-1" points="481.42 148.04 330.29 148.04 330.29 86.45 490.47 90.99 495.13 118.2 481.42 148.04"/></g><path class="cls-2" d="M18.92,86.32c67.78,0,392.94,1.22,461.06,1.22,8.29,0,12.55,3.69,13.86,10.06,4.93,23.84-6.71,49.78-16.31,49.78-108.09,0-358.47,2.46-453.13,2.46-10.82,0-22.14-36-17.12-54.35C9.4,87.88,14.55,86.32,18.92,86.32Z" transform="translate(0.12 0.13)"/><g id="Layer_3" data-name="Layer 3"><path class="cls-2" d="M47.28,149.8C90.41,323.8,78.41,276.05,107,389c1.39,5.53,7.32,22.82,19,22.82,182,0,45.22-.61,239.34-.61,7.81,0,24.09-5.48,27.69-19.68,39.3-156.13,15.69-59.68,61.52-244" transform="translate(0.12 0.13)"/><circle class="cls-3" cx="177.85" cy="236.24" r="19.59"/><circle class="cls-3" cx="323.33" cy="236.24" r="19.59"/><path class="cls-3" d="M177.73,334.16c2.72,11.95,32.33,19.72,72,19.72s68.6-6.65,70-18.82c.68-6,1-12.57-8.35-13.92-7,0-32,5.27-62.64,5.27-31.86,0-52.07-5.39-63.12-5S176.65,329.43,177.73,334.16Z" transform="translate(0.12 0.13)"/></g></g><g id="Layer_2" data-name="Layer 2"><rect class="cls-4" x="0.13" y="0.13" width="500" height="500"/></g></svg>