<svg xmlns="http://www.w3.org/2000/svg" viewBox="1398.886 1030.08 92.461 99.82">
  <defs>
    <style>
      .cls-1 {
        fill: #8cc153;
      }

      .cls-2 {
        fill: #a4d55d;
      }
    </style>
  </defs>
  <g id="Cannibas" transform="translate(1258 930)">
    <path id="Path_882" data-name="Path 882" class="cls-1" d="M247.4,441.63a2.079,2.079,0,0,1-2.078-2.081V426.67a2.079,2.079,0,0,1,4.158,0v12.88A2.081,2.081,0,0,1,247.4,441.63Z" transform="translate(-60.287 -241.73)"/>
    <path id="Path_883" data-name="Path 883" class="cls-2" d="M144.324,400.5l-2.915-.774a2.088,2.088,0,0,0-1.5-1.569l-2.915-.771a2.08,2.08,0,0,0-2.032-1.639h-2.547a2.033,2.033,0,0,0-.6-.737,2.089,2.089,0,0,0-1.8-.362l-2.337.618a2.029,2.029,0,0,0-.472-.39,2.078,2.078,0,0,0-2.047-.055l-2.343,1.24a2.09,2.09,0,0,0-1.91-.149l-10.228,4.338-10.223-4.338a2.1,2.1,0,0,0-1.913.149l-2.343-1.24a2.073,2.073,0,0,0-2.044.055,2.113,2.113,0,0,0-.475.39l-2.336-.618a2.085,2.085,0,0,0-2.4,1.1H86.395a2.078,2.078,0,0,0-2.032,1.639l-2.915.771a2.083,2.083,0,0,0-1.5,1.569l-2.915.774a2.078,2.078,0,0,0,0,4.018l2.915.774a2.083,2.083,0,0,0,1.5,1.569l2.915.771a2.081,2.081,0,0,0,2.032,1.639h2.544a2.1,2.1,0,0,0,.6.737,2.077,2.077,0,0,0,1.267.433,2.1,2.1,0,0,0,.533-.07l2.336-.618a2.111,2.111,0,0,0,.475.39,2.07,2.07,0,0,0,2.047.055l2.343-1.24a2.079,2.079,0,0,0,1.91.146l10.223-4.335,10.228,4.335a2.079,2.079,0,0,0,1.91-.146l2.343,1.24a2.079,2.079,0,0,0,2.047-.055,2.031,2.031,0,0,0,.472-.39l2.337.618a2.137,2.137,0,0,0,.533.07,2.086,2.086,0,0,0,1.27-.433,2.06,2.06,0,0,0,.6-.737h2.547a2.084,2.084,0,0,0,2.032-1.639l2.915-.771a2.087,2.087,0,0,0,1.5-1.569l2.915-.774a2.078,2.078,0,0,0,0-4.018Z" transform="translate(76.438 -217.572)"/>
    <path id="Path_884" data-name="Path 884" class="cls-1" d="M110.724,198.754a2.076,2.076,0,0,0-2.611-.268l-5.691,3.738-.018-.018a2.08,2.08,0,0,0-2.614-.268l-5.69,3.738-.018-.018a2.069,2.069,0,0,0-1.471-.609h0a2.079,2.079,0,0,0-1.471.606L86.7,210.092a2.082,2.082,0,0,0-2.933.561l-3.354,5.106a2.082,2.082,0,0,0-2.714,1.127l-2.425,5.846a2.089,2.089,0,0,0-2.181,1.121L65.1,239.744l-7.987-15.892a2.089,2.089,0,0,0-2.181-1.121l-2.425-5.846a2.084,2.084,0,0,0-2.714-1.127l-3.354-5.106a2.086,2.086,0,0,0-2.937-.561l-4.436-4.435a2.081,2.081,0,0,0-2.943,0l-.018.018-5.69-3.738a2.084,2.084,0,0,0-2.614.265l-.018.021-5.691-3.738a2.078,2.078,0,0,0-2.879,2.879l3.738,5.691-.021.018a2.079,2.079,0,0,0-.265,2.614l3.738,5.691-.021.018a2.085,2.085,0,0,0,0,2.943l4.438,4.439a2.083,2.083,0,0,0,.561,2.934l5.105,3.354a2.082,2.082,0,0,0,1.127,2.714l5.846,2.425a2.145,2.145,0,0,0,0,.655,2.08,2.08,0,0,0,1.121,1.526L64.17,246.23a.3.3,0,0,0,.046.021c.049.021.1.046.146.064l.079.028c.046.015.091.027.137.04a.684.684,0,0,0,.085.021,1.085,1.085,0,0,0,.143.024.647.647,0,0,0,.076.012,1.64,1.64,0,0,0,.213.012h.043a2.114,2.114,0,0,0,.439-.055.011.011,0,0,0,.009,0,1.339,1.339,0,0,0,.213-.064l.027-.009a1.615,1.615,0,0,0,.2-.085.023.023,0,0,0,.012-.006l19.589-9.845a2.076,2.076,0,0,0,1.118-1.526,2.051,2.051,0,0,0,0-.655l5.846-2.425a2.082,2.082,0,0,0,1.127-2.714l5.105-3.354a2.078,2.078,0,0,0,.557-2.934l4.439-4.439a2.079,2.079,0,0,0,0-2.943l-.018-.018,3.738-5.691a2.08,2.08,0,0,0-.268-2.614l-.018-.018,3.738-5.691A2.076,2.076,0,0,0,110.724,198.754Z" transform="translate(122.013 -59.432)"/>
    <path id="Path_885" data-name="Path 885" class="cls-2" d="M207.6,45.124a2.083,2.083,0,0,0-1.761-.975h-.018l2.038-8.472a2.077,2.077,0,0,0-2.02-2.565h-.579V24.154a2.076,2.076,0,0,0-2.077-2.078H202.17L199.9,12.632a2.079,2.079,0,0,0-2.023-1.593h-1.018l-2.274-9.445a2.079,2.079,0,0,0-4.042,0l-2.273,9.445h-1.017a2.079,2.079,0,0,0-2.023,1.593l-2.273,9.445h-1.017a2.079,2.079,0,0,0-2.08,2.078v8.959h-.576a2.081,2.081,0,0,0-2.023,2.565l2.038,8.472h-.015a2.081,2.081,0,0,0-1.873,2.982l3.92,8.146A2.081,2.081,0,0,0,180,58.013l10.622,27.6a2.08,2.08,0,0,0,3.881,0l10.627-27.6a2.077,2.077,0,0,0-.225-1.922,2.1,2.1,0,0,0-1.106-.813l3.921-8.146A2.074,2.074,0,0,0,207.6,45.124Z" transform="translate(-5.446 100.08)"/>
  </g>
</svg>
