<svg xmlns="http://www.w3.org/2000/svg" viewBox="1390 1164 110.508 106.9">
  <defs>
    <style>
      .cls-1 {
        fill: #8cc153;
      }

      .cls-2 {
        fill: #a0d468;
      }
    </style>
  </defs>
  <g id="Indica" transform="translate(1257 883)">
    <path id="Path_886" data-name="Path 886" class="cls-1" d="M55.3,106.9a2.362,2.362,0,0,1-2.2-2.5V89a2.218,2.218,0,1,1,4.4,0v15.4A2.362,2.362,0,0,1,55.3,106.9Z" transform="translate(133.004 281)"/>
    <path id="Path_887" data-name="Path 887" class="cls-1" d="M68,52.1h0l3.1-6.9a1.722,1.722,0,0,1,1.2-1,1.6,1.6,0,0,1,1.5.2l.4.3,4.7-6.2a1.673,1.673,0,0,1,2.4-.4l.7.5,6.4-5.5a1.8,1.8,0,0,1,2.2-.1l.7.5L97.7,28a.1.1,0,0,0,.1-.1h0l1.8-1.5,1.2-.9.6-.3c.3-.2.6.1.6.4l-.2.6a5.783,5.783,0,0,1-.5,1.4l-1,2.2h0v.1l-.1.3-3.4,7.4.7.5a1.82,1.82,0,0,1,.5,2.1l-3.5,7.7.7.5a1.854,1.854,0,0,1,.3,2.5l-4.7,6.2.4.3a1.445,1.445,0,0,1,.6,1.4,1.91,1.91,0,0,1-.7,1.4l-5.8,4.9h0a1.5,1.5,0,0,1,.6,1.5,1.969,1.969,0,0,1-1,1.5l-5.5,3a1.9,1.9,0,0,0-1,1.8h0a2.016,2.016,0,0,1-.9,1.5l-21.4,14a1.817,1.817,0,0,1-2,0,1.711,1.711,0,0,1-.6-1.9l7.6-24.4a1.8,1.8,0,0,1,1.2-1.2h0a2.254,2.254,0,0,0,1.5-1.5l1.4-6.1A1.82,1.82,0,0,1,66.3,52,1.69,1.69,0,0,1,68,52.1Z" transform="translate(133.004 281)"/>
    <path id="Path_888" data-name="Path 888" class="cls-1" d="M42.4,52.1h0l-3.1-6.9a1.722,1.722,0,0,0-1.2-1,1.6,1.6,0,0,0-1.5.2l-.4.3-4.7-6.2a1.673,1.673,0,0,0-2.4-.4l-.7.5L22,33a1.8,1.8,0,0,0-2.2-.1l-.7.5-6.4-5.5a.1.1,0,0,1-.1-.1h0l-1.8-1.5-1.2-.9L9,25.1c-.3-.2-.6.1-.6.4l.2.6a5.783,5.783,0,0,0,.5,1.4l1,2.2h0v.1l.1.3,3.4,7.4-.7.5a1.82,1.82,0,0,0-.5,2.1l3.5,7.7-.7.5a1.854,1.854,0,0,0-.3,2.5L19.6,57l-.4.3a1.445,1.445,0,0,0-.6,1.4,1.91,1.91,0,0,0,.7,1.4L25.1,65h0a1.5,1.5,0,0,0-.6,1.5,1.969,1.969,0,0,0,1,1.5L31,71a1.9,1.9,0,0,1,1,1.8h0a2.016,2.016,0,0,0,.9,1.5l21.4,14a1.817,1.817,0,0,0,2,0,1.711,1.711,0,0,0,.6-1.9L49.3,62a1.8,1.8,0,0,0-1.2-1.2h0a2.254,2.254,0,0,1-1.5-1.5l-1.4-6.1a1.82,1.82,0,0,0-1.1-1.3A2.016,2.016,0,0,0,42.4,52.1Z" transform="translate(133.004 281)"/>
    <path id="Path_889" data-name="Path 889" class="cls-1" d="M33,97.2h0l-4.1.9a1.02,1.02,0,0,1-.9-.2,1.27,1.27,0,0,1-.4-.7v-.3H23.2a.923.923,0,0,1-1-.9v-.5l-4.6-1a.948.948,0,0,1-.8-.9v-.5l-4.6-1h-.1l-1.3-.3c-.3-.1-.5-.2-.8-.3l-.3-.1a.208.208,0,0,1,0-.4l.3-.1c.3-.1.5-.2.8-.3l1.3-.3h.3l4.4-1v-.5a.948.948,0,0,1,.8-.9l4.6-1v-.5a.987.987,0,0,1,1-.9h4.4v-.3a.67.67,0,0,1,.4-.7,1.344,1.344,0,0,1,.9-.2H55.4s-.7,5.2-7.9,8.9c-1.2.7-2.6,1.3-3.6,1.8l-4.1,2a.94.94,0,0,1-.9-.1h0a1.721,1.721,0,0,0-1.2-.2l-3.2,1.4a1.183,1.183,0,0,1-1-.1A1.02,1.02,0,0,1,33,97.2Z" transform="translate(133.004 281)"/>
    <path id="Path_890" data-name="Path 890" class="cls-2" d="M27.1,68.7a16.268,16.268,0,0,0-2.3-1.1l-4.6-1.4a1.292,1.292,0,0,0-1.7.7l-.2.6-6.4-.8a1.339,1.339,0,0,0-1.4.8l-.2.6-6.4-.8H3.8L2,67.1a4.819,4.819,0,0,0-1.2,0H.3a.28.28,0,0,0-.2.5l.4.3a5.5,5.5,0,0,0,.9.7l1.5,1h0l.1.1.2.1,5.2,3.3-.2.6a1.179,1.179,0,0,0,.6,1.5l5.4,3.5-.2.6a1.351,1.351,0,0,0,.9,1.7l5.6,2-.1.3a1.627,1.627,0,0,0,.1,1.2,1.445,1.445,0,0,0,1,.7l34,3.4a1.126,1.126,0,0,0,1.2-.8,1.237,1.237,0,0,0-.4-1.4Z" transform="translate(133.004 281)"/>
    <path id="Path_891" data-name="Path 891" class="cls-1" d="M77.5,97.2h0l4.1.9a1.02,1.02,0,0,0,.9-.2,1.27,1.27,0,0,0,.4-.7v-.3h4.4a.923.923,0,0,0,1-.9v-.5l4.6-1a.948.948,0,0,0,.8-.9v-.5l4.6-1h.1l1.3-.3c.3-.1.5-.2.8-.3l.3-.1a.208.208,0,0,0,0-.4l-.3-.1c-.3-.1-.5-.2-.8-.3l-1.3-.3h-.3l-4.4-1v-.5a.948.948,0,0,0-.8-.9l-4.6-1v-.5a.987.987,0,0,0-1-.9H82.9v-.3a.67.67,0,0,0-.4-.7,1.344,1.344,0,0,0-.9-.2H55.1s.7,5.2,7.9,8.9c1.2.7,2.6,1.3,3.6,1.8l4.1,2a.94.94,0,0,0,.9-.1h0a1.721,1.721,0,0,1,1.2-.2L76,98.1a1.183,1.183,0,0,0,1-.1A1.02,1.02,0,0,0,77.5,97.2Z" transform="translate(133.004 281)"/>
    <path id="Path_892" data-name="Path 892" class="cls-2" d="M83.3,68.7a16.268,16.268,0,0,1,2.3-1.1l4.6-1.4A1.409,1.409,0,0,1,92,67l.2.6,6.4-.8a1.339,1.339,0,0,1,1.4.8l.2.6,6.4-.8h.1l1.8-.2a4.819,4.819,0,0,1,1.2,0h.5a.28.28,0,0,1,.2.5l-.4.3a5.5,5.5,0,0,1-.9.7l-1.5,1h0l-.1.1-.2.1-5.2,3.3.2.6a1.179,1.179,0,0,1-.6,1.5l-5.4,3.5.2.6a1.351,1.351,0,0,1-.9,1.7l-5.6,2,.1.3a1.627,1.627,0,0,1-.1,1.2,1.445,1.445,0,0,1-1,.7L55,88.7a1.126,1.126,0,0,1-1.2-.8,1.237,1.237,0,0,1,.4-1.4Z" transform="translate(133.004 281)"/>
    <path id="Path_893" data-name="Path 893" class="cls-2" d="M68.8,47.9a2.208,2.208,0,0,0-1.7-1h0L69,38.6a2.09,2.09,0,0,0-.4-1.7,1.9,1.9,0,0,0-1.5-.8h-.5V27.3a1.923,1.923,0,0,0-1.9-2h-.9L61.7,16a2,2,0,0,0-1.8-1.6H59L57,5.5l-.1-.4V5h0l-.6-2.6A7.494,7.494,0,0,0,55.8.8L55.5.1c-.2,0-.3-.1-.4-.1s-.2.1-.3.2l-.3.7A9.829,9.829,0,0,0,54,2.5l-.6,2.6h0v.1l-.1.4-2,8.9h-.9a1.82,1.82,0,0,0-1.8,1.6l-2.1,9.2h-.9a1.988,1.988,0,0,0-1.9,2v8.8h-.5a1.9,1.9,0,0,0-1.5.8,2.09,2.09,0,0,0-.4,1.7l1.9,8.3h0a2.062,2.062,0,0,0-1.7,1,2.292,2.292,0,0,0-.3,2.1L53.6,87.4a2.107,2.107,0,0,0,1.6,1.3,1.81,1.81,0,0,0,1.6-1.3L69.1,50A2.213,2.213,0,0,0,68.8,47.9Z" transform="translate(133.004 281)"/>
  </g>
</svg>
