<svg xmlns="http://www.w3.org/2000/svg" viewBox="1395 1436 101.918 106.8">
  <defs>
    <style>
      .cls-1 {
        fill: #8cc153;
      }

      .cls-2 {
        fill: #a0d468;
      }
    </style>
  </defs>
  <g id="Sativa" transform="translate(1258 967)">
    <path id="Path_894" data-name="Path 894" class="cls-1" d="M50.9,106.8a2.362,2.362,0,0,1-2.2-2.5V88.9a2.218,2.218,0,1,1,4.4,0v15.4A2.362,2.362,0,0,1,50.9,106.8Z" transform="translate(137.009 469)"/>
    <path id="Path_895" data-name="Path 895" class="cls-1" d="M41.7,56.3h0l-2.1-6.7a2.871,2.871,0,0,0-.8-1.3,1.015,1.015,0,0,0-1-.3l-.2.1-3.1-6.7c-.4-.9-1.1-1.4-1.6-1.2l-.4.2-4.2-6.6c-.4-.7-1-1-1.4-.8l-.4.2-4.2-6.6-1.3-2a10.475,10.475,0,0,0-.8-1.1l-.5-.5c-.2-.2-.4-.1-.4.2l.1.6c.1.4.2.9.3,1.4l.7,2.2.1.3,2.3,7.2-.4.1c-.4.2-.5.8-.3,1.6l2.4,7.5-.4.2c-.5.2-.5,1.1-.1,2L27.1,53l-.2.1c-.3.1-.4.5-.4.9a2.389,2.389,0,0,0,.5,1.4l3.8,6h0a1.407,1.407,0,0,0-.6,1.2,2.026,2.026,0,0,0,.4,1.5l3.8,4.5c.4.5,1,.9,1,1.6h0a2.815,2.815,0,0,0,.6,1.5L50,90.4c.4.5.9.8,1.3.6s.5-.7.3-1.4L43.9,58c-.1-.5-.2-1.3-.6-1.6A2.247,2.247,0,0,0,41.7,56.3Z" transform="translate(137.009 469)"/>
    <path id="Path_896" data-name="Path 896" class="cls-1" d="M28.4,79.1h0L23.8,77a1.8,1.8,0,0,0-1-.2.675.675,0,0,0-.6.4l-.1.2L17,75.8c-.6-.2-1.3-.1-1.4.3l-.1.3L10,75.5c-.6-.1-1,.1-1.1.4l-.1.3-5.6-.9L1.6,75a3.4,3.4,0,0,0-1-.1H.2c-.2,0-.3.2-.1.3l.4.2c.3.2.6.3.9.5l1.5.7.2.1L8,78.9l-.1.3c-.1.3.2.7.7.9l5.1,2.3-.1.3c-.1.4.3.8,1,1l5.1,1.5-.1.2q-.15.3.3.6a1.528,1.528,0,0,0,1,.4l5,.8h0c-.1.2.1.5.4.7a2.1,2.1,0,0,0,1.1.4l4,.2a2.106,2.106,0,0,1,1.3.5h0a2.1,2.1,0,0,0,1.1.4L50.4,91c.5,0,.9-.1.9-.4.1-.3-.1-.6-.6-.8L36.1,81.7c-.3-.2-5.9-2.7-5.9-2.7a2.279,2.279,0,0,0-1.1-.3A.72.72,0,0,0,28.4,79.1Z" transform="translate(137.009 469)"/>
    <path id="Path_897" data-name="Path 897" class="cls-2" d="M38.5,91.8h0l-2.5.3a.764.764,0,0,0-.5.2c-.1.1-.2.2-.2.3v.1l-2.6.7c-.3.1-.6.3-.5.5v.2l-2.6,1.1c-.3.1-.4.3-.4.4v.2l-2.6,1.1-.8.3c-.2.1-.3.1-.4.2l-.2.1c-.1.1-.1.1,0,.1h.7l.8-.1h.1l2.7-.4v.2c0,.2.3.2.5.2l2.8-.4v.2c0,.2.4.3.7.2l2.6-.7v.1c0,.1.1.2.3.2a.749.749,0,0,0,.5-.1l2.3-1h0c0,.1.2.2.4.2a1.268,1.268,0,0,0,.6-.1l1.7-1a.878.878,0,0,1,.7-.1h0a1.268,1.268,0,0,0,.6-.1L51,91a.536.536,0,0,0,.3-.4c0-.1-.2-.2-.5-.2l-8.3.4a.764.764,0,0,0-.5.2h0a1.445,1.445,0,0,1-.7.2h-2a1.421,1.421,0,0,0-.6.2C38.6,91.6,38.5,91.7,38.5,91.8Z" transform="translate(137.009 469)"/>
    <path id="Path_898" data-name="Path 898" class="cls-2" d="M29.1,61.5a2.1,2.1,0,0,0-1.1-.7,2.165,2.165,0,0,0-1.2.2l-.2.2L22,56.9c-.6-.6-1.3-.7-1.6-.4l-.3.3-5.5-3.9c-.5-.4-1.1-.5-1.4-.2l-.2.2L7.5,49,5.9,47.8c-.3-.2-.7-.4-1-.6L4.4,47c-.2-.1-.4,0-.2.2l.3.4a6.07,6.07,0,0,0,.7,1s1.2,1.5,1.3,1.6l.2.2,4.1,5-.3.3c-.3.3-.1.8.3,1.3l4.3,5.2-.3.3c-.3.3-.1,1,.5,1.6l4.6,4.3-.2.2a.6.6,0,0,0,0,.8,3.915,3.915,0,0,0,.8,1l4.9,3.5h0a.893.893,0,0,0,0,1,2.41,2.41,0,0,0,1,1l4.3,2.3a2.545,2.545,0,0,1,1.1,1.2h0a2.189,2.189,0,0,0,.9,1L50,90.8a1.072,1.072,0,0,0,1.2.1c.2-.2.2-.7-.2-1.2Z" transform="translate(137.009 469)"/>
    <path id="Path_899" data-name="Path 899" class="cls-1" d="M60.1,56.3h0l2.1-6.7a2.871,2.871,0,0,1,.8-1.3,1.015,1.015,0,0,1,1-.3l.2.1,3.1-6.7c.4-.9,1.1-1.4,1.6-1.2l.4.2,4.2-6.6c.4-.7,1-1,1.4-.8l.4.2,4.2-6.6,1.3-2a10.475,10.475,0,0,1,.8-1.1L82,23c.2-.2.4-.1.4.2l-.1.6c-.1.4-.2.9-.3,1.4l-.7,2.2-.1.3-2.3,7.2.4.2c.4.2.5.8.3,1.6l-2.4,7.5.4.2c.5.2.5,1.1.1,2l-3,6.6.2.1c.3.1.4.5.4.9a2.389,2.389,0,0,1-.5,1.4l-3.8,6h0a1.407,1.407,0,0,1,.6,1.2,2.026,2.026,0,0,1-.4,1.5l-3.8,4.5c-.4.5-1,.9-1,1.6h0a2.815,2.815,0,0,1-.6,1.5l-14,18.7c-.4.5-.9.8-1.3.6s-.5-.7-.3-1.4L57.8,58c.1-.5.2-1.3.6-1.6A2.544,2.544,0,0,1,60.1,56.3Z" transform="translate(137.009 469)"/>
    <path id="Path_900" data-name="Path 900" class="cls-1" d="M73.4,79.1h0L78,77a1.8,1.8,0,0,1,1-.2.675.675,0,0,1,.6.4l.1.2,5.1-1.5c.6-.2,1.3-.1,1.4.3l.1.3,5.6-.9c.6-.1,1,.1,1.1.4l.1.3,5.6-.9,1.6-.3a3.4,3.4,0,0,1,1-.1h.4c.2,0,.3.2.1.3l-.4.2c-.3.2-.6.3-.9.5l-1.5.7-.2.1L93.9,79l.1.3c.1.3-.2.7-.7.9L88,82.4l.1.3c.1.4-.3.8-1,1L82,85.2l.1.2q.15.3-.3.6a1.528,1.528,0,0,1-1,.4l-5,.8h0c.1.2-.1.5-.4.7a2.1,2.1,0,0,1-1.1.4l-4,.2A2.106,2.106,0,0,0,69,89h0a2.1,2.1,0,0,1-1.1.4L51.4,91c-.5,0-.9-.1-.9-.4-.1-.3.1-.6.6-.8l14.6-8.1c.3-.2,5.9-2.7,5.9-2.7a2.279,2.279,0,0,1,1.1-.3A.842.842,0,0,1,73.4,79.1Z" transform="translate(137.009 469)"/>
    <path id="Path_901" data-name="Path 901" class="cls-2" d="M63.2,91.8h0l2.5.3a.764.764,0,0,1,.5.2c.1.1.2.2.2.3v.1l2.6.7c.3.1.6.3.5.5v.2l2.6,1.1c.3.1.4.3.4.4v.2l2.6,1.1.8.3c.2.1.3.1.4.2l.2.1c.1.1.1.1,0,.1h-.7l-.8-.1h-.1l-2.7-.4v.2c0,.2-.3.2-.5.2l-2.8-.4v.2c0,.2-.4.3-.7.2l-2.6-.7v.1c0,.1-.1.2-.3.2a.749.749,0,0,1-.5-.1l-2.3-1h0c0,.1-.2.2-.4.2a1.268,1.268,0,0,1-.6-.1l-1.7-1a.878.878,0,0,0-.7-.1h0a1.268,1.268,0,0,1-.6-.1L50.7,91a.536.536,0,0,1-.3-.4c0-.1.2-.2.5-.2l8.3.4a.764.764,0,0,1,.5.2h0a1.445,1.445,0,0,0,.7.2h2a1.421,1.421,0,0,1,.6.2C63.2,91.6,63.2,91.7,63.2,91.8Z" transform="translate(137.009 469)"/>
    <path id="Path_902" data-name="Path 902" class="cls-2" d="M72.7,61.5a2.1,2.1,0,0,1,1.1-.7A2.165,2.165,0,0,1,75,61l.2.2,4.6-4.3c.6-.6,1.3-.7,1.6-.4l.3.3,5.5-3.9c.5-.4,1.1-.5,1.4-.2l.3.3,5.5-3.9L96,47.9c.3-.2.7-.4,1-.6l.4-.2c.2-.1.4,0,.2.2l-.3.4a6.071,6.071,0,0,1-.7,1s-1.2,1.5-1.3,1.6l-.2.2-4.1,5,.3.3c.3.3.1.8-.3,1.3l-4.3,5.2.3.3c.3.3.1,1-.5,1.6l-4.6,4.3.2.2a.6.6,0,0,1,0,.8,3.915,3.915,0,0,1-.8,1L76.4,74h0a.893.893,0,0,1,0,1,2.41,2.41,0,0,1-1,1L71,78.2a2.545,2.545,0,0,0-1.1,1.2h0a2.189,2.189,0,0,1-.9,1L51.8,90.8a1.072,1.072,0,0,1-1.2.1c-.2-.2-.2-.7.2-1.2Z" transform="translate(137.009 469)"/>
    <path id="Path_903" data-name="Path 903" class="cls-2" d="M59.2,49.1c-.2-.6-.6-1-1-1h0l1.1-8.5a3.591,3.591,0,0,0-.2-1.8,1.156,1.156,0,0,0-.9-.8h-.3V28c0-1.2-.5-2.1-1.1-2.1h-.6l-1.3-9.5c-.1-.9-.6-1.6-1.1-1.6h-.6L52,5.8V5.4l-.4-2.8c-.1-.6-.2-1.1-.3-1.7L51.1.2a.215.215,0,0,0-.2-.2c-.1,0-.2.1-.2.3l-.2.7c-.1.5-.2,1.1-.3,1.7l-.4,2.8v.4L48.6,15H48c-.5,0-1,.7-1.1,1.6L45.6,26H45c-.6,0-1.1.9-1.1,2.1v9h-.3c-.4,0-.7.3-.9.8a3.591,3.591,0,0,0-.2,1.8l1.1,8.5h0c-.4,0-.8.4-1,1a4.421,4.421,0,0,0-.2,2l7.4,38.6c.2.8.6,1.3,1.1,1.3s.9-.5,1.1-1.3l7.4-38.6A6.816,6.816,0,0,0,59.2,49.1Z" transform="translate(137.009 469)"/>
  </g>
</svg>
