<?xml version="1.0" ?><svg style="enable-background:new 0 0 48 48.00004;" version="1.1" viewBox="0 0 48 48.00004" xml:space="preserve" xmlns="http://www.w3.org/2000/svg" xmlns:xlink="http://www.w3.org/1999/xlink"><g id="Icons"><g id="Icons_4_"><g><path d="M24,8.65502c-8.47,0-15.34,6.87-15.34,15.3501c0,8.4699,6.87,15.3399,15.34,15.3399     s15.34-6.87,15.34-15.3399C39.34,15.52502,32.47,8.65502,24,8.65502z M32.18,19.81512c0,0-0.03,1.88-0.31,3.06     c-0.28,1.1699-1.22,4.44-4.02,6.7399c-2.8,2.3-6.22,2.8-8.16,2.67c-1.93-0.13-4.31-0.87-5.84-1.82c0,0,3.51,0.38,6.1-1.7599     c0,0-2.62,0.12-3.86-2.89c0,0,0.89,0.1599,1.86-0.11c0,0-3.3-0.6001-3.34-4.1501c0,0,1.08,0.53,1.88,0.48     c0,0-3.15-2.4099-1.23-5.5199c0,0,3.15,4.18,8.63,4.3399c-1.33-3.6699,4.63-7.1499,7.08-3.81c0,0,0.95-0.0299,2.69-0.9699     c0,0-0.42,1.3199-1.75,2.1999c0,0,1-0.0099,2.23-0.54C34.05,17.87512,33.3,19.02502,32.18,19.81512z" style="fill:#4AA0EC;"/></g></g></g></svg>